<svg xmlns="http://www.w3.org/2000/svg"  viewBox="0 0 100 100" width="100px" height="100px" fill-rule="evenodd" clip-rule="evenodd" baseProfile="basic"><path fill="#f1b419" d="M78,13c0-0.552-0.448-1-1-1s-1,0.448-1,1c0,0.552,0.448,1,1,1	S78,13.552,78,13z"/><path fill="#e4e4f9" d="M87,50c0-20.424-16.576-37-37-37S13,29.576,13,50	s16.576,37,37,37S87,70.424,87,50z"/><path fill="#f1b419" d="M87,15c0-2.208-1.792-4-4-4c-2.208,0-4,1.792-4,4	c0,2.208,1.792,4,4,4C85.208,19,87,17.208,87,15z"/><path fill="#8888b9" d="M89,24c0-1.104-0.896-2-2-2s-2,0.896-2,2c0,1.104,0.896,2,2,2	S89,25.104,89,24z"/><path fill="#fbcd59" d="M83,76c0-1.104-0.896-2-2-2c-1.104,0-2,0.896-2,2	c0,1.104,0.896,2,2,2C82.104,78,83,77.104,83,76z"/><path fill="#fbcd59" d="M19,63c0-2.208-1.792-4-4-4s-4,1.792-4,4c0,2.208,1.792,4,4,4	S19,65.208,19,63z"/><path fill="#8888b9" d="M27,87c0-1.104-0.896-2-2-2s-2,0.896-2,2c0,1.104,0.896,2,2,2	S27,88.104,27,87z"/><path fill="#fff" d="M21,51.5c0-1.38-1.12-2.5-2.5-2.5c-1.38,0-2.5,1.12-2.5,2.5	c0,1.38,1.12,2.5,2.5,2.5C19.88,54,21,52.88,21,51.5z"/><path fill="#fff" d="M81,33.5c0-0.828-0.672-1.5-1.5-1.5	c-0.828,0-1.5,0.672-1.5,1.5c0,0.828,0.672,1.5,1.5,1.5C80.328,35,81,34.328,81,33.5z"/><path fill="#5a5c70" d="M49.999,73.959c-0.931,0-1.877-0.055-2.812-0.161	c-10.924-1.252-19.751-10.089-20.985-21.012c-0.819-7.217,1.585-14.269,6.6-19.439l3.412,3.975	c-3.205,3.464-4.964,7.947-4.964,12.679c0,3.005,0.711,5.901,2.107,8.603l2.06-0.269l8.131-7.695l4.417-8.012v12.163l-8.381,8.752	l-0.216,1.889c3.147,2.171,6.827,3.32,10.633,3.32s7.487-1.149,10.633-3.32l-0.216-1.889l-8.369-8.752V42.627l4.405,8.012	l8.131,7.695l2.06,0.269c1.396-2.701,2.107-5.597,2.107-8.603c0-4.732-1.759-9.215-4.964-12.679l3.412-3.975	c4.363,4.492,6.76,10.385,6.76,16.653c0,6.388-2.496,12.401-7.028,16.932c-4.531,4.531-10.543,7.027-16.929,7.027	C50,73.959,50,73.959,49.999,73.959z"/><path fill="#ef9922" d="M50,31.249c3.845,0,7.513,1.152,10.643,3.339l3.411-3.972	c-4.103-2.993-8.951-4.575-14.053-4.575s-9.951,1.581-14.053,4.575l3.411,3.972C42.485,32.401,46.155,31.249,50,31.249z"/><path fill="#472b29" d="M50,26.459c4.863,0,9.489,1.459,13.44,4.231l-2.871,3.343	C57.44,31.936,53.804,30.833,50,30.833s-7.439,1.103-10.569,3.199l-2.872-3.343C40.511,27.917,45.137,26.459,50,26.459 M67.213,33.968C71.303,38.34,73.541,43.993,73.541,50c0,12.98-10.561,23.541-23.541,23.541c-0.915,0-1.847-0.052-2.767-0.157	c-10.733-1.229-19.405-9.912-20.62-20.645c-0.785-6.941,1.457-13.725,6.173-18.771l2.872,3.345	C32.54,40.815,30.833,45.288,30.833,50c0,3.073,0.724,6.032,2.153,8.795c0.211,0.409,0.603,0.695,1.057,0.769	c0.079,0.012,0.159,0.02,0.236,0.02c0.376,0,0.74-0.145,1.015-0.409l8.427-8.124c0.107-0.104,0.197-0.223,0.268-0.352l3.559-6.437	v10.361l-8.643,8.941c-0.296,0.308-0.441,0.731-0.4,1.157c0.043,0.425,0.271,0.811,0.624,1.053	c3.219,2.219,6.977,3.392,10.871,3.392s7.652-1.173,10.869-3.395c0.353-0.241,0.581-0.628,0.624-1.053	c0.043-0.425-0.104-0.849-0.4-1.157l-8.631-8.941V44.26l3.548,6.437c0.069,0.131,0.161,0.249,0.267,0.351l8.428,8.125	c0.273,0.265,0.637,0.408,1.013,0.408c0.077,0,0.157-0.005,0.237-0.019c0.453-0.075,0.847-0.361,1.057-0.769	c1.429-2.761,2.153-5.72,2.153-8.793c0-4.712-1.707-9.185-4.825-12.687L67.213,33.968 M50,25c-5.688,0-10.928,1.905-15.128,5.117	c-0.237,0.184-0.269,0.532-0.075,0.76l4.085,4.757c0.103,0.116,0.245,0.177,0.388,0.177c0.108,0,0.219-0.035,0.312-0.104	c2.924-2.157,6.528-3.416,10.417-3.416s7.493,1.259,10.417,3.415c0.093,0.069,0.204,0.104,0.312,0.104	c0.144,0,0.285-0.06,0.388-0.177l4.085-4.757c0.195-0.227,0.161-0.576-0.075-0.759C60.928,26.905,55.688,25,50,25L50,25z M67.173,32.063c-0.148,0-0.297,0.063-0.403,0.184l-4.085,4.757c-0.176,0.204-0.163,0.504,0.025,0.697	c3.095,3.18,4.997,7.521,4.997,12.299c0,2.927-0.729,5.688-1.989,8.125L57.292,50l-5.315-9.676	c-0.103-0.187-0.275-0.271-0.448-0.271c-0.263,0-0.524,0.193-0.524,0.519v14.636l9.036,9.364c-2.853,1.969-6.312,3.136-10.041,3.136	s-7.188-1.167-10.041-3.135l9.048-9.365V40.572c0-0.325-0.261-0.519-0.524-0.519c-0.173,0-0.347,0.084-0.448,0.271L42.708,50	l-8.428,8.125c-1.259-2.437-1.988-5.199-1.988-8.125c0-4.777,1.903-9.119,4.997-12.299c0.187-0.193,0.201-0.493,0.024-0.697	l-4.084-4.757c-0.104-0.121-0.255-0.184-0.403-0.184c-0.132,0-0.264,0.048-0.365,0.147c-5.24,5.161-8.213,12.597-7.297,20.692	c1.293,11.425,10.48,20.621,21.904,21.931C48.056,74.944,49.035,75,50,75c13.78,0,25-11.22,25-25c0-6.957-2.855-13.253-7.463-17.791	C67.437,32.111,67.305,32.063,67.173,32.063L67.173,32.063z"/><path fill="#472b29" fill-rule="evenodd" d="M62.84,63.195	l-2.852-2.968c-0.095-0.099-0.092-0.257,0.008-0.353c0.099-0.095,0.257-0.092,0.353,0.008l2.852,2.968	c0.095,0.099,0.092,0.257-0.008,0.353C63.095,63.297,62.936,63.295,62.84,63.195z" clip-rule="evenodd"/><path fill="#472b29" fill-rule="evenodd" d="M58.545,58.725	l-1.62-1.685c-0.095-0.099-0.092-0.257,0.008-0.353c0.099-0.095,0.257-0.092,0.353,0.008l1.62,1.685	c0.095,0.099,0.092,0.257-0.008,0.353C58.8,58.828,58.641,58.825,58.545,58.725z" clip-rule="evenodd"/><path fill="#472b29" fill-rule="evenodd" d="M55.481,55.537	l-1.24-1.291c-0.095-0.099-0.092-0.257,0.008-0.353c0.099-0.095,0.257-0.092,0.353,0.008l1.24,1.291	c0.095,0.099,0.092,0.257-0.008,0.353C55.736,55.64,55.577,55.637,55.481,55.537z" clip-rule="evenodd"/><path fill="#472b29" fill-rule="evenodd" d="M47.911,28.223	c-0.012-0.137,0.091-0.259,0.228-0.269c0.612-0.052,1.233-0.077,1.861-0.077c0.415,0,0.828,0.011,1.24,0.033	c0.137,0.008,0.243,0.127,0.236,0.264c-0.008,0.137-0.127,0.243-0.264,0.236c-0.401-0.023-0.807-0.033-1.212-0.033	c-0.613,0-1.221,0.025-1.82,0.075C48.043,28.463,47.921,28.36,47.911,28.223z" clip-rule="evenodd"/><path fill="#472b29" fill-rule="evenodd" d="M39.812,30.636	c-0.064-0.123-0.015-0.273,0.108-0.336c1.9-0.975,3.959-1.681,6.129-2.073c0.136-0.024,0.267,0.065,0.291,0.201	c0.024,0.136-0.065,0.267-0.201,0.291c-2.123,0.384-4.133,1.075-5.991,2.025C40.025,30.808,39.875,30.759,39.812,30.636z" clip-rule="evenodd"/><path fill="#472b29" fill-rule="evenodd" d="M27.88,49.473	c0.033-1.399,0.196-2.765,0.477-4.089c0.029-0.135,0.161-0.22,0.297-0.192c0.135,0.029,0.22,0.161,0.192,0.297	c-0.276,1.292-0.433,2.629-0.467,3.996c-0.004,0.137-0.119,0.247-0.256,0.244C27.987,49.725,27.877,49.611,27.88,49.473z" clip-rule="evenodd"/><path fill="#472b29" fill-rule="evenodd" d="M30.325,60.133	c-1.339-2.593-2.179-5.487-2.396-8.552c-0.009-0.137,0.095-0.257,0.232-0.268c0.137-0.009,0.257,0.095,0.268,0.232	c0.212,2.996,1.033,5.825,2.34,8.36c0.064,0.123,0.015,0.273-0.108,0.336C30.539,60.305,30.388,60.256,30.325,60.133z" clip-rule="evenodd"/><path fill="#472b29" fill-rule="evenodd" d="M41.044,70.239	c-3.641-1.615-6.767-4.183-9.056-7.388c-0.08-0.112-0.055-0.268,0.059-0.348c0.112-0.08,0.268-0.055,0.348,0.059	c2.239,3.133,5.292,5.643,8.851,7.22c0.127,0.056,0.184,0.204,0.128,0.329C41.317,70.237,41.169,70.295,41.044,70.239z" clip-rule="evenodd"/></svg>